<?xml version="1.0" encoding="UTF-8"?><svg xmlns="http://www.w3.org/2000/svg" xmlns:xlink="http://www.w3.org/1999/xlink" fill-opacity="1" color-rendering="auto" color-interpolation="auto" text-rendering="auto" stroke="black" stroke-linecap="square" width="158" stroke-miterlimit="10" shape-rendering="auto" stroke-opacity="1" fill="black" stroke-dasharray="none" font-weight="normal" stroke-width="1" height="150" font-family="'Dialog'" font-style="normal" stroke-linejoin="miter" font-size="12px" stroke-dashoffset="0" image-rendering="auto">
  <!--Generated by ySVG 2.5-->
  <defs id="genericDefs"/>
  <g>
    <defs id="defs1">
      <clipPath clipPathUnits="userSpaceOnUse" id="clipPath1">
        <path d="M0 0 L158 0 L158 150 L0 150 L0 0 Z"/>
      </clipPath>
      <clipPath clipPathUnits="userSpaceOnUse" id="clipPath2">
        <path d="M611 320 L769 320 L769 470 L611 470 L611 320 Z"/>
      </clipPath>
    </defs>
    <g fill="white" text-rendering="geometricPrecision" shape-rendering="geometricPrecision" transform="translate(-611,-320)" stroke="white">
      <rect x="611" width="158" height="150" y="320" clip-path="url(#clipPath2)" stroke="none"/>
    </g>
    <g fill="white" text-rendering="geometricPrecision" shape-rendering="geometricPrecision" transform="matrix(1,0,0,1,-611,-320)" stroke="white">
      <rect x="626" width="128" height="30" y="395" clip-path="url(#clipPath2)" stroke="none"/>
    </g>
    <g text-rendering="geometricPrecision" stroke-miterlimit="1.45" shape-rendering="geometricPrecision" transform="matrix(1,0,0,1,-611,-320)" stroke-linecap="butt">
      <rect fill="none" x="626" width="128" height="30" y="395" clip-path="url(#clipPath2)"/>
      <text x="656.9912" xml:space="preserve" y="414.7139" clip-path="url(#clipPath2)" font-family="sans-serif" stroke="none">Dateisystem</text>
    </g>
    <g fill="white" text-rendering="geometricPrecision" shape-rendering="geometricPrecision" transform="matrix(1,0,0,1,-611,-320)" stroke="white">
      <rect x="626" width="128" height="30" y="365" clip-path="url(#clipPath2)" stroke="none"/>
    </g>
    <g text-rendering="geometricPrecision" stroke-miterlimit="1.45" shape-rendering="geometricPrecision" transform="matrix(1,0,0,1,-611,-320)" stroke-linecap="butt">
      <rect fill="none" x="626" width="128" height="30" y="365" clip-path="url(#clipPath2)"/>
      <text x="676.9893" xml:space="preserve" y="384.7139" clip-path="url(#clipPath2)" font-family="sans-serif" stroke="none">h5py</text>
    </g>
    <g fill="white" text-rendering="geometricPrecision" shape-rendering="geometricPrecision" transform="matrix(1,0,0,1,-611,-320)" stroke="white">
      <rect x="626" width="128" height="30" y="335" clip-path="url(#clipPath2)" stroke="none"/>
    </g>
    <g text-rendering="geometricPrecision" stroke-miterlimit="1.45" shape-rendering="geometricPrecision" transform="matrix(1,0,0,1,-611,-320)" stroke-linecap="butt">
      <rect fill="none" x="626" width="128" height="30" y="335" clip-path="url(#clipPath2)"/>
      <text x="653.9854" xml:space="preserve" y="354.7139" clip-path="url(#clipPath2)" font-family="sans-serif" stroke="none">Python-Skript</text>
    </g>
    <g fill="rgb(224,224,224)" text-rendering="geometricPrecision" shape-rendering="geometricPrecision" transform="matrix(1,0,0,1,-611,-320)" stroke="rgb(224,224,224)">
      <rect x="656" width="98" height="30" y="425" clip-path="url(#clipPath2)" stroke="none"/>
    </g>
    <g text-rendering="geometricPrecision" stroke-miterlimit="1.45" shape-rendering="geometricPrecision" transform="matrix(1,0,0,1,-611,-320)" stroke-linecap="butt">
      <rect fill="none" x="656" width="98" height="30" y="425" clip-path="url(#clipPath2)"/>
      <text x="662.6455" xml:space="preserve" y="444.7139" clip-path="url(#clipPath2)" font-family="sans-serif" stroke="none">HDF5 Bilddaten</text>
    </g>
  </g>
</svg>
