<?xml version="1.0" encoding="UTF-8"?><svg xmlns="http://www.w3.org/2000/svg" xmlns:xlink="http://www.w3.org/1999/xlink" fill-opacity="1" color-rendering="auto" color-interpolation="auto" text-rendering="auto" stroke="black" stroke-linecap="square" width="780" stroke-miterlimit="10" shape-rendering="auto" stroke-opacity="1" fill="black" stroke-dasharray="none" font-weight="normal" stroke-width="1" height="320" font-family="'Dialog'" font-style="normal" stroke-linejoin="miter" font-size="12px" stroke-dashoffset="0" image-rendering="auto">
  <!--Generated by ySVG 2.5-->
  <defs id="genericDefs"/>
  <g>
    <defs id="defs1">
      <clipPath clipPathUnits="userSpaceOnUse" id="clipPath1">
        <path d="M0 0 L780 0 L780 320 L0 320 L0 0 Z"/>
      </clipPath>
      <clipPath clipPathUnits="userSpaceOnUse" id="clipPath2">
        <path d="M375 310 L1155 310 L1155 630 L375 630 L375 310 Z"/>
      </clipPath>
    </defs>
    <g fill="white" text-rendering="geometricPrecision" shape-rendering="geometricPrecision" transform="translate(-375,-310)" stroke="white">
      <rect x="375" width="780" height="320" y="310" clip-path="url(#clipPath2)" stroke="none"/>
    </g>
    <g text-rendering="geometricPrecision" stroke-miterlimit="1.45" shape-rendering="geometricPrecision" transform="matrix(1,0,0,1,-375,-310)" stroke-linecap="butt">
      <rect fill="none" x="841" width="269" height="192" y="388" clip-path="url(#clipPath2)"/>
      <rect x="556" y="325" clip-path="url(#clipPath2)" fill="none" width="269" stroke-dasharray="6,2" height="255"/>
      <rect fill="none" x="390" width="60" height="35" y="468.5" clip-path="url(#clipPath2)"/>
      <text x="404.6602" xml:space="preserve" y="490.7139" clip-path="url(#clipPath2)" font-family="sans-serif" stroke="none">Client</text>
      <rect fill="none" x="480" width="60" height="35" y="468.5" clip-path="url(#clipPath2)"/>
      <text x="496.6523" xml:space="preserve" y="483.3633" clip-path="url(#clipPath2)" font-family="sans-serif" stroke="none">Load</text>
      <text x="486.3193" xml:space="preserve" y="498.0645" clip-path="url(#clipPath2)" font-family="sans-serif" stroke="none">Balancer</text>
      <text x="935.4775" xml:space="preserve" y="602.2139" clip-path="url(#clipPath2)" font-family="sans-serif" stroke="none">Object Storage</text>
      <rect fill="none" x="570" width="60" height="35" y="403.5" clip-path="url(#clipPath2)"/>
      <text x="579.9932" xml:space="preserve" y="418.3633" clip-path="url(#clipPath2)" font-family="sans-serif" stroke="none">Service</text>
      <text x="585.6562" xml:space="preserve" y="433.0645" clip-path="url(#clipPath2)" font-family="sans-serif" stroke="none">Node</text>
      <rect fill="none" x="750" width="60" height="35" y="403.5" clip-path="url(#clipPath2)"/>
      <text x="767.3262" xml:space="preserve" y="418.3633" clip-path="url(#clipPath2)" font-family="sans-serif" stroke="none">Data</text>
      <text x="765.6562" xml:space="preserve" y="433.0645" clip-path="url(#clipPath2)" font-family="sans-serif" stroke="none">Node</text>
      <rect fill="none" x="570" width="60" height="35" y="338.5" clip-path="url(#clipPath2)"/>
      <text x="585.6562" xml:space="preserve" y="353.3633" clip-path="url(#clipPath2)" font-family="sans-serif" stroke="none">Head</text>
      <text x="585.6562" xml:space="preserve" y="368.0645" clip-path="url(#clipPath2)" font-family="sans-serif" stroke="none">Node</text>
      <rect fill="none" x="750" width="60" height="35" y="468.5" clip-path="url(#clipPath2)"/>
      <text x="767.3262" xml:space="preserve" y="483.3633" clip-path="url(#clipPath2)" font-family="sans-serif" stroke="none">Data</text>
      <text x="765.6562" xml:space="preserve" y="498.0645" clip-path="url(#clipPath2)" font-family="sans-serif" stroke="none">Node</text>
      <rect fill="none" x="750" width="60" height="35" y="533.5" clip-path="url(#clipPath2)"/>
      <text x="767.3262" xml:space="preserve" y="548.3633" clip-path="url(#clipPath2)" font-family="sans-serif" stroke="none">Data</text>
      <text x="765.6562" xml:space="preserve" y="563.0645" clip-path="url(#clipPath2)" font-family="sans-serif" stroke="none">Node</text>
      <rect fill="none" x="570" width="60" height="35" y="468.5" clip-path="url(#clipPath2)"/>
      <text x="579.9932" xml:space="preserve" y="483.3633" clip-path="url(#clipPath2)" font-family="sans-serif" stroke="none">Service</text>
      <text x="585.6562" xml:space="preserve" y="498.0645" clip-path="url(#clipPath2)" font-family="sans-serif" stroke="none">Node</text>
      <rect fill="none" x="570" width="60" height="35" y="533.5" clip-path="url(#clipPath2)"/>
      <text x="579.9932" xml:space="preserve" y="548.3633" clip-path="url(#clipPath2)" font-family="sans-serif" stroke="none">Service</text>
      <text x="585.6562" xml:space="preserve" y="563.0645" clip-path="url(#clipPath2)" font-family="sans-serif" stroke="none">Node</text>
      <text x="635.3086" xml:space="preserve" y="602.2139" clip-path="url(#clipPath2)" font-family="sans-serif" stroke="none">Virtual Private Cloud</text>
      <text x="851.3115" y="407.7139" clip-path="url(#clipPath2)" fill="gray" font-family="sans-serif" stroke="none" xml:space="preserve">Virtual Partition 1</text>
      <text x="851.3115" y="474.2139" clip-path="url(#clipPath2)" fill="gray" font-family="sans-serif" stroke="none" xml:space="preserve">Virtual Partition 2</text>
      <text x="851.3115" y="540.7139" clip-path="url(#clipPath2)" fill="gray" font-family="sans-serif" stroke="none" xml:space="preserve">Virtual Partition 3</text>
      <rect fill="none" x="660.5" width="60" height="35" y="338.5" clip-path="url(#clipPath2)"/>
      <text x="674.1611" xml:space="preserve" y="353.3633" clip-path="url(#clipPath2)" font-family="sans-serif" stroke="none">Async</text>
      <text x="676.1562" xml:space="preserve" y="368.0645" clip-path="url(#clipPath2)" font-family="sans-serif" stroke="none">Node</text>
      <path fill="none" d="M450 486 L480 486" stroke-width="2" clip-path="url(#clipPath2)"/>
      <path fill="none" d="M534.2308 468.5 L575.7692 438.5" stroke-width="2" clip-path="url(#clipPath2)"/>
      <path fill="none" d="M630 421 L750 421" stroke-width="2" clip-path="url(#clipPath2)"/>
      <path fill="none" d="M810 421 L840.9836 421" stroke-width="2" clip-path="url(#clipPath2)"/>
      <path fill="none" d="M630 431.8333 L750 475.1667" stroke-width="2" clip-path="url(#clipPath2)"/>
      <path fill="none" d="M810 486 L841.0076 486" stroke-width="2" clip-path="url(#clipPath2)"/>
      <path fill="none" d="M624.2308 438.5 L755.7692 533.5" stroke-width="2" clip-path="url(#clipPath2)"/>
      <path fill="none" d="M810 551 L840.9814 551" stroke-width="2" clip-path="url(#clipPath2)"/>
      <path fill="none" d="M540 486 L570 486" stroke-width="2" clip-path="url(#clipPath2)"/>
      <path fill="none" d="M630 475.1667 L750 431.8333" stroke-width="2" clip-path="url(#clipPath2)"/>
      <path fill="none" d="M630 486 L750 486" stroke-width="2" clip-path="url(#clipPath2)"/>
      <path fill="none" d="M630 496.8333 L750 540.1667" stroke-width="2" clip-path="url(#clipPath2)"/>
      <path fill="none" d="M534.2308 503.5 L575.7692 533.5" stroke-width="2" clip-path="url(#clipPath2)"/>
      <path fill="none" d="M630 551 L750 551" stroke-width="2" clip-path="url(#clipPath2)"/>
      <path fill="none" d="M630 540.1667 L750 496.8333" stroke-width="2" clip-path="url(#clipPath2)"/>
      <path fill="none" d="M624.2308 533.5 L755.7692 438.5" stroke-width="2" clip-path="url(#clipPath2)"/>
      <path fill="none" stroke-dasharray="6,2" d="M840 453.5 L1110 453.5" clip-path="url(#clipPath2)"/>
      <path fill="none" stroke-dasharray="6,2" d="M840 518.5 L1110 518.5" clip-path="url(#clipPath2)"/>
    </g>
  </g>
</svg>
