<?xml version="1.0" encoding="UTF-8"?><svg xmlns="http://www.w3.org/2000/svg" xmlns:xlink="http://www.w3.org/1999/xlink" fill-opacity="1" color-rendering="auto" color-interpolation="auto" text-rendering="auto" stroke="black" stroke-linecap="square" width="183" stroke-miterlimit="10" shape-rendering="auto" stroke-opacity="1" fill="black" stroke-dasharray="none" font-weight="normal" stroke-width="1" height="240" font-family="'Dialog'" font-style="normal" stroke-linejoin="miter" font-size="12px" stroke-dashoffset="0" image-rendering="auto">
  <!--Generated by ySVG 2.5-->
  <defs id="genericDefs"/>
  <g>
    <defs id="defs1">
      <clipPath clipPathUnits="userSpaceOnUse" id="clipPath1">
        <path d="M0 0 L183 0 L183 240 L0 240 L0 0 Z"/>
      </clipPath>
      <clipPath clipPathUnits="userSpaceOnUse" id="clipPath2">
        <path d="M586 205 L769 205 L769 445 L586 445 L586 205 Z"/>
      </clipPath>
    </defs>
    <g fill="white" text-rendering="geometricPrecision" shape-rendering="geometricPrecision" transform="translate(-586,-205)" stroke="white">
      <rect x="586" width="183" height="240" y="205" clip-path="url(#clipPath2)" stroke="none"/>
    </g>
    <g fill="white" text-rendering="geometricPrecision" shape-rendering="geometricPrecision" transform="matrix(1,0,0,1,-586,-205)" stroke="white">
      <rect x="601" width="128" height="30" y="370" clip-path="url(#clipPath2)" stroke="none"/>
    </g>
    <g text-rendering="geometricPrecision" stroke-miterlimit="1.45" shape-rendering="geometricPrecision" transform="matrix(1,0,0,1,-586,-205)" stroke-linecap="butt">
      <rect fill="none" x="601" width="128" height="30" y="370" clip-path="url(#clipPath2)"/>
      <text x="648.998" xml:space="preserve" y="389.7139" clip-path="url(#clipPath2)" font-family="sans-serif" stroke="none">MinIO</text>
    </g>
    <g fill="white" text-rendering="geometricPrecision" shape-rendering="geometricPrecision" transform="matrix(1,0,0,1,-586,-205)" stroke="white">
      <rect x="601" width="128" height="30" y="310" clip-path="url(#clipPath2)" stroke="none"/>
    </g>
    <g text-rendering="geometricPrecision" stroke-miterlimit="1.45" shape-rendering="geometricPrecision" transform="matrix(1,0,0,1,-586,-205)" stroke-linecap="butt">
      <rect fill="none" x="601" width="128" height="30" y="310" clip-path="url(#clipPath2)"/>
      <text x="648.3301" xml:space="preserve" y="329.7139" clip-path="url(#clipPath2)" font-family="sans-serif" stroke="none">HSDS</text>
    </g>
    <g fill="white" text-rendering="geometricPrecision" shape-rendering="geometricPrecision" transform="matrix(1,0,0,1,-586,-205)" stroke="white">
      <rect x="601" width="128" height="30" y="250" clip-path="url(#clipPath2)" stroke="none"/>
    </g>
    <g text-rendering="geometricPrecision" stroke-miterlimit="1.45" shape-rendering="geometricPrecision" transform="matrix(1,0,0,1,-586,-205)" stroke-linecap="butt">
      <rect fill="none" x="601" width="128" height="30" y="250" clip-path="url(#clipPath2)"/>
      <text x="648.6523" xml:space="preserve" y="269.7139" clip-path="url(#clipPath2)" font-family="sans-serif" stroke="none">h5pyd</text>
    </g>
    <g fill="white" text-rendering="geometricPrecision" shape-rendering="geometricPrecision" transform="matrix(1,0,0,1,-586,-205)" stroke="white">
      <rect x="601" width="128" height="30" y="220" clip-path="url(#clipPath2)" stroke="none"/>
    </g>
    <g text-rendering="geometricPrecision" stroke-miterlimit="1.45" shape-rendering="geometricPrecision" transform="matrix(1,0,0,1,-586,-205)" stroke-linecap="butt">
      <rect fill="none" x="601" width="128" height="30" y="220" clip-path="url(#clipPath2)"/>
      <text x="628.9854" xml:space="preserve" y="239.7139" clip-path="url(#clipPath2)" font-family="sans-serif" stroke="none">Python-Skript</text>
    </g>
    <g fill="rgb(224,224,224)" text-rendering="geometricPrecision" shape-rendering="geometricPrecision" transform="matrix(1,0,0,1,-586,-205)" stroke="rgb(224,224,224)">
      <rect x="631" width="98" height="30" y="400" clip-path="url(#clipPath2)" stroke="none"/>
    </g>
    <g text-rendering="geometricPrecision" stroke-miterlimit="1.45" shape-rendering="geometricPrecision" transform="matrix(1,0,0,1,-586,-205)" stroke-linecap="butt">
      <rect fill="none" x="631" width="98" height="30" y="400" clip-path="url(#clipPath2)"/>
      <text x="637.6455" xml:space="preserve" y="419.7139" clip-path="url(#clipPath2)" font-family="sans-serif" stroke="none">HDF5 Bilddaten</text>
      <path fill="none" d="M665 340 L665 370" stroke-width="2" clip-path="url(#clipPath2)"/>
      <text x="669" font-size="11px" y="359.321" clip-path="url(#clipPath2)" font-family="sans-serif" stroke="none" xml:space="preserve">S3 API</text>
      <path fill="none" d="M665 280 L665 310" stroke-width="2" clip-path="url(#clipPath2)"/>
      <text x="669" font-size="11px" y="299.321" clip-path="url(#clipPath2)" font-family="sans-serif" stroke="none" xml:space="preserve">HDF5-REST API</text>
    </g>
  </g>
</svg>
