<?xml version="1.0" encoding="UTF-8"?><svg xmlns="http://www.w3.org/2000/svg" xmlns:xlink="http://www.w3.org/1999/xlink" fill-opacity="1" color-rendering="auto" color-interpolation="auto" text-rendering="auto" stroke="black" stroke-linecap="square" width="183" stroke-miterlimit="10" shape-rendering="auto" stroke-opacity="1" fill="black" stroke-dasharray="none" font-weight="normal" stroke-width="1" height="240" font-family="'Dialog'" font-style="normal" stroke-linejoin="miter" font-size="12px" stroke-dashoffset="0" image-rendering="auto">
  <!--Generated by ySVG 2.5-->
  <defs id="genericDefs"/>
  <g>
    <defs id="defs1">
      <clipPath clipPathUnits="userSpaceOnUse" id="clipPath1">
        <path d="M0 0 L183 0 L183 240 L0 240 L0 0 Z"/>
      </clipPath>
      <clipPath clipPathUnits="userSpaceOnUse" id="clipPath2">
        <path d="M611 230 L794 230 L794 470 L611 470 L611 230 Z"/>
      </clipPath>
    </defs>
    <g fill="white" text-rendering="geometricPrecision" shape-rendering="geometricPrecision" transform="translate(-611,-230)" stroke="white">
      <rect x="611" width="183" height="240" y="230" clip-path="url(#clipPath2)" stroke="none"/>
    </g>
    <g fill="white" text-rendering="geometricPrecision" shape-rendering="geometricPrecision" transform="matrix(1,0,0,1,-611,-230)" stroke="white">
      <rect x="626" width="128" height="30" y="395" clip-path="url(#clipPath2)" stroke="none"/>
    </g>
    <g text-rendering="geometricPrecision" stroke-miterlimit="1.45" shape-rendering="geometricPrecision" transform="matrix(1,0,0,1,-611,-230)" stroke-linecap="butt">
      <rect fill="none" x="626" width="128" height="30" y="395" clip-path="url(#clipPath2)"/>
      <text x="642.3047" xml:space="preserve" y="414.7139" clip-path="url(#clipPath2)" font-family="sans-serif" stroke="none">S3 BLOB Storage</text>
    </g>
    <g fill="white" text-rendering="geometricPrecision" shape-rendering="geometricPrecision" transform="matrix(1,0,0,1,-611,-230)" stroke="white">
      <rect x="626" width="128" height="30" y="335" clip-path="url(#clipPath2)" stroke="none"/>
    </g>
    <g text-rendering="geometricPrecision" stroke-miterlimit="1.45" shape-rendering="geometricPrecision" transform="matrix(1,0,0,1,-611,-230)" stroke-linecap="butt">
      <rect fill="none" x="626" width="128" height="30" y="335" clip-path="url(#clipPath2)"/>
      <text x="673.3301" xml:space="preserve" y="354.7139" clip-path="url(#clipPath2)" font-family="sans-serif" stroke="none">HSDS</text>
    </g>
    <g fill="white" text-rendering="geometricPrecision" shape-rendering="geometricPrecision" transform="matrix(1,0,0,1,-611,-230)" stroke="white">
      <rect x="626" width="128" height="30" y="275" clip-path="url(#clipPath2)" stroke="none"/>
    </g>
    <g text-rendering="geometricPrecision" stroke-miterlimit="1.45" shape-rendering="geometricPrecision" transform="matrix(1,0,0,1,-611,-230)" stroke-linecap="butt">
      <rect fill="none" x="626" width="128" height="30" y="275" clip-path="url(#clipPath2)"/>
      <text x="673.6523" xml:space="preserve" y="294.7139" clip-path="url(#clipPath2)" font-family="sans-serif" stroke="none">h5pyd</text>
    </g>
    <g fill="white" text-rendering="geometricPrecision" shape-rendering="geometricPrecision" transform="matrix(1,0,0,1,-611,-230)" stroke="white">
      <rect x="626" width="128" height="30" y="245" clip-path="url(#clipPath2)" stroke="none"/>
    </g>
    <g text-rendering="geometricPrecision" stroke-miterlimit="1.45" shape-rendering="geometricPrecision" transform="matrix(1,0,0,1,-611,-230)" stroke-linecap="butt">
      <rect fill="none" x="626" width="128" height="30" y="245" clip-path="url(#clipPath2)"/>
      <text x="653.9854" xml:space="preserve" y="264.7139" clip-path="url(#clipPath2)" font-family="sans-serif" stroke="none">Python-Skript</text>
    </g>
    <g fill="rgb(224,224,224)" text-rendering="geometricPrecision" shape-rendering="geometricPrecision" transform="matrix(1,0,0,1,-611,-230)" stroke="rgb(224,224,224)">
      <rect x="656" width="98" height="30" y="425" clip-path="url(#clipPath2)" stroke="none"/>
    </g>
    <g text-rendering="geometricPrecision" stroke-miterlimit="1.45" shape-rendering="geometricPrecision" transform="matrix(1,0,0,1,-611,-230)" stroke-linecap="butt">
      <rect fill="none" x="656" width="98" height="30" y="425" clip-path="url(#clipPath2)"/>
      <text x="662.6455" xml:space="preserve" y="444.7139" clip-path="url(#clipPath2)" font-family="sans-serif" stroke="none">HDF5 Bilddaten</text>
      <path fill="none" d="M690 365 L690 395" stroke-width="2" clip-path="url(#clipPath2)"/>
      <text x="694" font-size="11px" y="384.321" clip-path="url(#clipPath2)" font-family="sans-serif" stroke="none" xml:space="preserve">S3 API</text>
      <path fill="none" d="M690 305 L690 335" stroke-width="2" clip-path="url(#clipPath2)"/>
      <text x="694" font-size="11px" y="324.321" clip-path="url(#clipPath2)" font-family="sans-serif" stroke="none" xml:space="preserve">HDF5-REST API</text>
    </g>
  </g>
</svg>
