<?xml version="1.0" encoding="UTF-8"?><svg xmlns="http://www.w3.org/2000/svg" xmlns:xlink="http://www.w3.org/1999/xlink" fill-opacity="1" color-rendering="auto" color-interpolation="auto" text-rendering="auto" stroke="black" stroke-linecap="square" width="497" stroke-miterlimit="10" shape-rendering="auto" stroke-opacity="1" fill="black" stroke-dasharray="none" font-weight="normal" stroke-width="1" height="198" font-family="'Dialog'" font-style="normal" stroke-linejoin="miter" font-size="12px" stroke-dashoffset="0" image-rendering="auto">
  <!--Generated by ySVG 2.5-->
  <defs id="genericDefs"/>
  <g>
    <defs id="defs1">
      <clipPath clipPathUnits="userSpaceOnUse" id="clipPath1">
        <path d="M0 0 L497 0 L497 198 L0 198 L0 0 Z"/>
      </clipPath>
      <clipPath clipPathUnits="userSpaceOnUse" id="clipPath2">
        <path d="M410 354 L907 354 L907 552 L410 552 L410 354 Z"/>
      </clipPath>
    </defs>
    <g fill="white" text-rendering="geometricPrecision" shape-rendering="geometricPrecision" transform="translate(-410,-354)" stroke="white">
      <rect x="410" width="497" height="198" y="354" clip-path="url(#clipPath2)" stroke="none"/>
    </g>
    <g fill="rgb(224,224,224)" text-rendering="geometricPrecision" shape-rendering="geometricPrecision" transform="matrix(1,0,0,1,-410,-354)" stroke="rgb(224,224,224)">
      <rect x="485" width="30" height="30" y="399.5" clip-path="url(#clipPath2)" stroke="none"/>
    </g>
    <g text-rendering="geometricPrecision" stroke-miterlimit="1.45" shape-rendering="geometricPrecision" transform="matrix(1,0,0,1,-410,-354)" stroke-linecap="butt">
      <rect fill="none" x="485" width="30" height="30" y="399.5" clip-path="url(#clipPath2)"/>
      <text x="495.998" xml:space="preserve" y="419.2139" clip-path="url(#clipPath2)" font-family="sans-serif" stroke="none">P</text>
      <rect fill="none" x="455" width="30" height="30" y="507" clip-path="url(#clipPath2)"/>
      <text x="465.998" xml:space="preserve" y="526.7139" clip-path="url(#clipPath2)" font-family="sans-serif" stroke="none">A</text>
      <rect fill="none" x="515" width="30" height="30" y="507" clip-path="url(#clipPath2)"/>
      <text x="525.667" xml:space="preserve" y="526.7139" clip-path="url(#clipPath2)" font-family="sans-serif" stroke="none">C</text>
      <circle stroke-linecap="square" clip-path="url(#clipPath2)" r="4" cx="500" cy="462" stroke="none" stroke-miterlimit="10"/>
      <circle fill="none" r="4" clip-path="url(#clipPath2)" cx="500" cy="462"/>
    </g>
    <g fill="rgb(224,224,224)" text-rendering="geometricPrecision" shape-rendering="geometricPrecision" transform="matrix(1,0,0,1,-410,-354)" stroke="rgb(224,224,224)">
      <rect x="741.24" width="30" height="30" y="399.5" clip-path="url(#clipPath2)" stroke="none"/>
    </g>
    <g text-rendering="geometricPrecision" stroke-miterlimit="1.45" shape-rendering="geometricPrecision" transform="matrix(1,0,0,1,-410,-354)" stroke-linecap="butt">
      <rect fill="none" x="741.24" width="30" height="30" y="399.5" clip-path="url(#clipPath2)"/>
      <text x="752.238" xml:space="preserve" y="419.2139" clip-path="url(#clipPath2)" font-family="sans-serif" stroke="none">P</text>
      <rect fill="none" x="621.24" width="30" height="30" y="507" clip-path="url(#clipPath2)"/>
      <text x="632.238" xml:space="preserve" y="526.7139" clip-path="url(#clipPath2)" font-family="sans-serif" stroke="none">A</text>
      <rect fill="none" x="681.24" width="30" height="30" y="507" clip-path="url(#clipPath2)"/>
      <text x="691.907" xml:space="preserve" y="526.7139" clip-path="url(#clipPath2)" font-family="sans-serif" stroke="none">C</text>
      <circle stroke-linecap="square" clip-path="url(#clipPath2)" r="4" cx="666.24" cy="462" stroke="none" stroke-miterlimit="10"/>
      <circle fill="none" r="4" clip-path="url(#clipPath2)" cx="666.24" cy="462"/>
      <rect fill="none" x="801.24" width="30" height="30" y="507" clip-path="url(#clipPath2)"/>
      <text x="812.9031" xml:space="preserve" y="526.7139" clip-path="url(#clipPath2)" font-family="sans-serif" stroke="none">L</text>
      <rect fill="none" x="861.24" width="30" height="30" y="507" clip-path="url(#clipPath2)"/>
      <text x="871.907" xml:space="preserve" y="526.7139" clip-path="url(#clipPath2)" font-family="sans-serif" stroke="none">C</text>
      <circle stroke-linecap="square" clip-path="url(#clipPath2)" r="4" cx="846.24" cy="462" stroke="none" stroke-miterlimit="10"/>
      <circle fill="none" r="4" clip-path="url(#clipPath2)" cx="846.24" cy="462"/>
      <text x="434.665" y="389.2139" clip-path="url(#clipPath2)" font-family="sans-serif" stroke="none" font-weight="bold" xml:space="preserve">a)</text>
      <text x="600.5769" y="389.2139" clip-path="url(#clipPath2)" font-family="sans-serif" stroke="none" font-weight="bold" xml:space="preserve">b)</text>
      <path fill="none" d="M500 429.5 L500 449" stroke-width="2" clip-path="url(#clipPath2)"/>
      <path d="M500 458 L505.625 444.5 L500 447.875 L494.375 444.5 Z" stroke-width="2" clip-path="url(#clipPath2)" stroke="none"/>
      <path fill="none" d="M481.5249 498.9502 L498.2112 465.5777" stroke-width="2" clip-path="url(#clipPath2)"/>
      <path d="M477.5 507 L488.5685 497.4408 L482.028 497.9439 L478.5063 492.4097 Z" stroke-width="2" clip-path="url(#clipPath2)" stroke="none"/>
      <path fill="none" d="M518.4751 498.9502 L501.7888 465.5777" stroke-width="2" clip-path="url(#clipPath2)"/>
      <path d="M522.5 507 L521.4938 492.4097 L517.972 497.9439 L511.4315 497.4408 Z" stroke-width="2" clip-path="url(#clipPath2)" stroke="none"/>
      <path fill="none" d="M741.24 422.4167 L677.737 455.9321" stroke-width="2" clip-path="url(#clipPath2)"/>
      <path d="M669.7775 460.133 L684.3422 458.8064 L678.7319 455.407 L679.0912 448.8571 Z" stroke-width="2" clip-path="url(#clipPath2)" stroke="none"/>
      <text x="664.0374" xml:space="preserve" y="434.5939" clip-path="url(#clipPath2)" font-family="sans-serif" stroke="none">partition?</text>
      <path fill="none" d="M647.7649 498.9502 L664.4512 465.5777" stroke-width="2" clip-path="url(#clipPath2)"/>
      <path d="M643.74 507 L654.8085 497.4408 L648.268 497.9439 L644.7462 492.4097 Z" stroke-width="2" clip-path="url(#clipPath2)" stroke="none"/>
      <path fill="none" d="M684.7151 498.9502 L668.0289 465.5777" stroke-width="2" clip-path="url(#clipPath2)"/>
      <path d="M688.74 507 L687.7338 492.4097 L684.212 497.9439 L677.6714 497.4408 Z" stroke-width="2" clip-path="url(#clipPath2)" stroke="none"/>
      <path fill="none" d="M771.24 422.4167 L834.743 455.9321" stroke-width="2" clip-path="url(#clipPath2)"/>
      <path d="M842.7025 460.133 L833.3888 448.8571 L833.748 455.407 L828.1378 458.8064 Z" stroke-width="2" clip-path="url(#clipPath2)" stroke="none"/>
      <text x="803.1531" xml:space="preserve" y="432.6739" clip-path="url(#clipPath2)" font-family="sans-serif" stroke="none">else</text>
      <path fill="none" d="M827.7649 498.9502 L844.4512 465.5777" stroke-width="2" clip-path="url(#clipPath2)"/>
      <path d="M823.74 507 L834.8085 497.4408 L828.268 497.9439 L824.7462 492.4097 Z" stroke-width="2" clip-path="url(#clipPath2)" stroke="none"/>
      <path fill="none" d="M864.7151 498.9502 L848.0289 465.5777" stroke-width="2" clip-path="url(#clipPath2)"/>
      <path d="M868.74 507 L867.7338 492.4097 L864.212 497.9439 L857.6714 497.4408 Z" stroke-width="2" clip-path="url(#clipPath2)" stroke="none"/>
    </g>
  </g>
</svg>
